# xmcd CD database file
#
# Track frame offsets:
#	150
#	15398
#	29764
#	46597
#	57215
#	71035
#	97836
#	110836
#	127742
#	135576
#	151429
#	167791
#	188410
#
# Disc length: 2649 seconds
#
# Revision: 2
# Processed by: cddbd v1.5.1PL2 Copyright (c) Steve Scherf et al.
# Submitted via: CDex 1.51
#
DISCID=a10a570d
DTITLE=Cat Power - The Greatest
DYEAR=2006
DGENRE=Folk
TTITLE0=The Greatest
TTITLE1=Living Proof
TTITLE2=Lived in Bars
TTITLE3=Could We
TTITLE4=Empty Shell
TTITLE5=Willie
TTITLE6=Where is My Love
TTITLE7=The Moon
TTITLE8=Islands
TTITLE9=After it All
TTITLE10=Hate
TTITLE11=Love and Communication
TTITLE12=Bonus Track
EXTD=YEAR: 2006
EXTT0=
EXTT1=
EXTT2=
EXTT3=
EXTT4=
EXTT5=
EXTT6=
EXTT7=
EXTT8=
EXTT9=
EXTT10=
EXTT11=
EXTT12=
PLAYORDER=
